<svg xmlns="http://www.w3.org/2000/svg" xml:space="preserve" width="1031.66" height="256" stroke-miterlimit="10" style="fill-rule:nonzero;clip-rule:evenodd;stroke-linecap:round;stroke-linejoin:round" viewBox="0 0 1031.66 256"><path fill="#5309e8" d="m3 65.508 121.781 164.084 8.104 10.919 86.629-50.003-54.129-31.254z"/><path fill="#4332ff" d="M111.257 3 3 65.508l121.781 164.084 94.733-164.084z"/><path fill="#faf7ff" d="M46.306 165.482 3 190.492 111.256 253z"/><path fill="#37f" d="m3.001 65.5 121.797 164.102 40.586-70.352z"/><path fill="#faf7ff" d="M326.852 56.933c-12.898 0-25.617 5.33-33.59 14.693-9.241 10.852-11.227 25.704-4.701 42.088 3.213 8.069 8.908 14.053 16.772 18.536 5.829 3.322 12.079 5.555 21.745 8.182.78.212 4.818 1.279 5.108 1.356 18.335 4.875 24.155 8.177 25.407 15.507 1.707 9.991-1.029 16.61-7.414 21.112-5.686 4.009-14.247 6.193-22.966 6.193-17.441 0-31.74-11.029-31.645-28.029l-14.467-.045c-.145 25.992 21.367 42.541 46.112 42.541 11.471 0 22.871-2.884 31.284-8.816 10.955-7.723 15.98-19.876 13.337-35.352-1.465-8.572-6.39-14.86-14.196-19.304-5.411-3.081-10.771-4.858-21.745-7.776-.295-.078-4.265-1.151-5.018-1.356-17.457-4.745-25.339-9.219-28.888-18.128-4.603-11.559-3.384-20.677 2.261-27.306 5.094-5.983 13.775-9.63 22.604-9.63 18.315 0 30.605 9.06 30.605 23.6 0 4.254-4.279 8.815-11.256 8.815-7.659 0-11.769-3.968-11.754-8.77l-14.467-.046c-.039 12.955 10.695 23.282 26.221 23.282 15.159 0 25.723-11.217 25.723-23.282 0-23.648-19.556-38.065-45.072-38.065M420.562 97.813c-16.751 0-30.4 6.474-40.531 21.281L392 127.281c7.302-10.672 16.386-15 28.562-15 15.323 0 25.344 9.237 25.344 21.688v.687c-6.75-4.922-15.405-7.937-25.344-7.937-23.072 0-39.781 15.487-39.781 36.187 0 20.527 17.122 36.157 39.781 36.156 22.66 0 39.813-15.629 39.813-36.156v-28.937c0-20.701-16.74-36.156-39.813-36.156m0 43.375c15.323 0 25.344 9.268 25.344 21.718 0 12.23-10.395 21.688-25.344 21.688-14.948 0-25.312-9.458-25.312-21.688 0-12.45 9.99-21.718 25.312-21.718M889.708 97.801c-26.33 0-43.4 18.215-43.4 50.633 0 32.417 17.07 50.633 43.4 50.633 26.005 0 43.399-18.892 43.399-50.633s-17.394-50.633-43.399-50.633m0 14.467c17.736 0 28.933 12.16 28.933 36.166S907.444 184.6 889.708 184.6c-18.123 0-28.933-11.536-28.934-36.166 0-24.63 10.811-36.166 28.934-36.166M985.257 97.801c-26.33 0-43.4 18.215-43.4 50.633v48.825h14.467v-48.825c0-24.63 10.81-36.166 28.933-36.166 17.733 0 28.933 12.16 28.933 36.166v48.825h14.47v-48.825c0-31.741-17.4-50.633-43.403-50.633M513.75 97.813c-26.33 0-43.375 18.207-43.375 50.625V228h14.437v-39.719c7.376 6.945 17.148 10.782 28.938 10.781 26.005 0 43.406-18.884 43.406-50.624s-17.401-50.625-43.406-50.625m0 14.468c17.736 0 28.938 12.151 28.938 36.157s-11.202 36.156-28.938 36.156c-18.122 0-28.937-11.526-28.938-36.156 0-24.631 10.816-36.157 28.938-36.157M609.312 97.813c-26.329 0-43.406 18.207-43.406 50.624V228h14.469v-39.719c7.375 6.94 17.151 10.782 28.937 10.781 26.006 0 43.407-18.884 43.407-50.625 0-31.74-17.401-50.624-43.407-50.625m0 14.468c17.737 0 28.938 12.151 28.938 36.156 0 24.006-11.201 36.157-28.938 36.157-18.122 0-28.937-11.526-28.937-36.157s10.815-36.156 28.937-36.156M662.719 64.156V197.25h14.469v-48.812c0-24.631 10.783-36.157 28.906-36.157 17.736 0 28.937 12.151 28.937 36.157v48.812H749.5v-48.812c0-31.741-17.401-50.625-43.406-50.625-11.773 0-21.534 3.825-28.906 10.749V64.156zM763.975 105.034v92.225h14.467v-92.225zM792.908 84.6V197.26h14.467V84.6zM821.841 64.166V197.26h14.467V64.166z"/><path fill="#37f" d="M771.208 93.1a51.36 51.36 0 0 0-28.933-28.934 51.36 51.36 0 0 0 28.933-28.933 51.36 51.36 0 0 0 28.934 28.933A51.36 51.36 0 0 0 771.208 93.1"/></svg>